<svg xmlns="http://www.w3.org/2000/svg" width="208" height="192" aria-label="Heart empty" role="img" shape-rendering="crispEdges" viewBox="0 0 208 192"><title>Heart empty</title><rect width="48" height="16" x="32" y="0" fill="#1A1A1A"/><rect width="48" height="16" x="128" y="0" fill="#1A1A1A"/><rect width="16" height="16" x="16" y="16" fill="#1A1A1A"/><rect width="48" height="16" x="32" y="16" fill="#C8BFB5"/><rect width="16" height="16" x="80" y="16" fill="#1A1A1A"/><rect width="16" height="16" x="112" y="16" fill="#1A1A1A"/><rect width="48" height="16" x="128" y="16" fill="#C8BFB5"/><rect width="16" height="16" x="176" y="16" fill="#1A1A1A"/><rect width="16" height="16" x="0" y="32" fill="#1A1A1A"/><rect width="80" height="16" x="16" y="32" fill="#C8BFB5"/><rect width="16" height="16" x="96" y="32" fill="#1A1A1A"/><rect width="80" height="16" x="112" y="32" fill="#C8BFB5"/><rect width="16" height="16" x="192" y="32" fill="#1A1A1A"/><rect width="16" height="16" x="0" y="48" fill="#1A1A1A"/><rect width="176" height="16" x="16" y="48" fill="#C8BFB5"/><rect width="16" height="16" x="192" y="48" fill="#1A1A1A"/><rect width="16" height="16" x="0" y="64" fill="#1A1A1A"/><rect width="176" height="16" x="16" y="64" fill="#C8BFB5"/><rect width="16" height="16" x="192" y="64" fill="#1A1A1A"/><rect width="16" height="16" x="0" y="80" fill="#1A1A1A"/><rect width="176" height="16" x="16" y="80" fill="#C8BFB5"/><rect width="16" height="16" x="192" y="80" fill="#1A1A1A"/><rect width="16" height="16" x="16" y="96" fill="#1A1A1A"/><rect width="144" height="16" x="32" y="96" fill="#C8BFB5"/><rect width="16" height="16" x="176" y="96" fill="#1A1A1A"/><rect width="16" height="16" x="32" y="112" fill="#1A1A1A"/><rect width="112" height="16" x="48" y="112" fill="#C8BFB5"/><rect width="16" height="16" x="160" y="112" fill="#1A1A1A"/><rect width="16" height="16" x="48" y="128" fill="#1A1A1A"/><rect width="80" height="16" x="64" y="128" fill="#C8BFB5"/><rect width="16" height="16" x="144" y="128" fill="#1A1A1A"/><rect width="16" height="16" x="64" y="144" fill="#1A1A1A"/><rect width="48" height="16" x="80" y="144" fill="#C8BFB5"/><rect width="16" height="16" x="128" y="144" fill="#1A1A1A"/><rect width="16" height="16" x="80" y="160" fill="#1A1A1A"/><rect width="16" height="16" x="96" y="160" fill="#C8BFB5"/><rect width="16" height="16" x="112" y="160" fill="#1A1A1A"/><rect width="16" height="16" x="96" y="176" fill="#1A1A1A"/></svg>